<svg width="1326" height="696" viewBox="0 0 1326 696" fill="none" xmlns="http://www.w3.org/2000/svg">
<path d="M404.883 463.018C404.883 467.575 404.069 471.807 402.441 475.713C400.814 479.619 398.535 483.037 395.605 485.967C392.676 488.734 389.258 490.931 385.352 492.559C381.445 494.186 377.295 495 372.9 495H229.834C216.325 495 202.653 493.535 188.818 490.605C174.984 487.676 161.556 483.2 148.535 477.178C135.677 470.993 123.551 463.18 112.158 453.74C100.765 444.3 90.7552 433.151 82.1289 420.293C73.6654 407.272 66.9922 392.461 62.1094 375.859C57.2266 359.095 54.7852 340.459 54.7852 319.951V144.902H118.262V319.951C118.262 337.855 120.703 352.992 125.586 365.361C130.632 377.731 136.979 388.066 144.629 396.367C152.279 404.668 160.661 411.178 169.775 415.898C178.89 420.618 187.516 424.118 195.654 426.396C203.955 428.675 211.198 430.14 217.383 430.791C223.73 431.279 227.881 431.523 229.834 431.523H341.406V144.902H404.883V463.018ZM886.328 495H822.363V286.504L709.814 484.502C707.048 489.548 703.141 493.372 698.096 495.977C693.213 498.581 687.923 499.883 682.227 499.883C676.693 499.883 671.484 498.581 666.602 495.977C661.882 493.372 658.138 489.548 655.371 484.502L542.334 286.504V495H478.857V172.002C478.857 164.678 480.973 158.167 485.205 152.471C489.6 146.774 495.296 142.949 502.295 140.996C505.713 140.182 509.131 139.938 512.549 140.264C515.967 140.426 519.222 141.159 522.314 142.461C525.57 143.6 528.499 145.309 531.104 147.588C533.708 149.704 535.905 152.308 537.695 155.4L682.227 406.621L826.758 155.4C830.501 149.215 835.628 144.821 842.139 142.217C848.812 139.613 855.729 139.206 862.891 140.996C869.727 142.949 875.342 146.774 879.736 152.471C884.131 158.167 886.328 164.678 886.328 172.002V495ZM1248.14 351.934H1047.71V287.969H1248.14V351.934ZM1276.71 495H1047.71C1038.92 495 1029.31 493.454 1018.9 490.361C1008.48 487.269 998.796 482.223 989.844 475.225C981.055 468.063 973.649 458.867 967.627 447.637C961.768 436.243 958.838 422.327 958.838 405.889V176.885C958.838 172.49 959.652 168.34 961.279 164.434C962.907 160.527 965.104 157.109 967.871 154.18C970.801 151.25 974.219 148.971 978.125 147.344C982.031 145.716 986.263 144.902 990.82 144.902H1276.71V208.379H1022.31V405.889C1022.31 414.189 1024.51 420.537 1028.91 424.932C1033.3 429.326 1039.73 431.523 1048.19 431.523H1276.71V495Z" fill="black"/>
<path d="M404.883 463.018C404.883 467.575 404.069 471.807 402.441 475.713C400.814 479.619 398.535 483.037 395.605 485.967C392.676 488.734 389.258 490.931 385.352 492.559C381.445 494.186 377.295 495 372.9 495H229.834C216.325 495 202.653 493.535 188.818 490.605C174.984 487.676 161.556 483.2 148.535 477.178C135.677 470.993 123.551 463.18 112.158 453.74C100.765 444.3 90.7552 433.151 82.1289 420.293C73.6654 407.272 66.9922 392.461 62.1094 375.859C57.2266 359.095 54.7852 340.459 54.7852 319.951V144.902H118.262V319.951C118.262 337.855 120.703 352.992 125.586 365.361C130.632 377.731 136.979 388.066 144.629 396.367C152.279 404.668 160.661 411.178 169.775 415.898C178.89 420.618 187.516 424.118 195.654 426.396C203.955 428.675 211.198 430.14 217.383 430.791C223.73 431.279 227.881 431.523 229.834 431.523H341.406V144.902H404.883V463.018ZM886.328 495H822.363V286.504L709.814 484.502C707.048 489.548 703.141 493.372 698.096 495.977C693.213 498.581 687.923 499.883 682.227 499.883C676.693 499.883 671.484 498.581 666.602 495.977C661.882 493.372 658.138 489.548 655.371 484.502L542.334 286.504V495H478.857V172.002C478.857 164.678 480.973 158.167 485.205 152.471C489.6 146.774 495.296 142.949 502.295 140.996C505.713 140.182 509.131 139.938 512.549 140.264C515.967 140.426 519.222 141.159 522.314 142.461C525.57 143.6 528.499 145.309 531.104 147.588C533.708 149.704 535.905 152.308 537.695 155.4L682.227 406.621L826.758 155.4C830.501 149.215 835.628 144.821 842.139 142.217C848.812 139.613 855.729 139.206 862.891 140.996C869.727 142.949 875.342 146.774 879.736 152.471C884.131 158.167 886.328 164.678 886.328 172.002V495ZM1248.14 351.934H1047.71V287.969H1248.14V351.934ZM1276.71 495H1047.71C1038.92 495 1029.31 493.454 1018.9 490.361C1008.48 487.269 998.796 482.223 989.844 475.225C981.055 468.063 973.649 458.867 967.627 447.637C961.768 436.243 958.838 422.327 958.838 405.889V176.885C958.838 172.49 959.652 168.34 961.279 164.434C962.907 160.527 965.104 157.109 967.871 154.18C970.801 151.25 974.219 148.971 978.125 147.344C982.031 145.716 986.263 144.902 990.82 144.902H1276.71V208.379H1022.31V405.889C1022.31 414.189 1024.51 420.537 1028.91 424.932C1033.3 429.326 1039.73 431.523 1048.19 431.523H1276.71V495Z" fill="url(#paint0_linear_2_166)"/>
<path d="M74.6582 647.395C74.6582 649.901 74.3327 652.163 73.6816 654.182C73.0632 656.167 72.2331 657.925 71.1914 659.455C70.1497 660.985 68.929 662.287 67.5293 663.361C66.1296 664.436 64.681 665.314 63.1836 665.998C61.6862 666.682 60.1562 667.186 58.5938 667.512C57.0638 667.837 55.6152 668 54.248 668H5.27344V655.305H54.248C56.6895 655.305 58.5775 654.589 59.9121 653.156C61.2793 651.724 61.9629 649.803 61.9629 647.395C61.9629 646.223 61.7839 645.148 61.4258 644.172C61.0677 643.195 60.5469 642.349 59.8633 641.633C59.2122 640.917 58.3984 640.363 57.4219 639.973C56.4779 639.582 55.4199 639.387 54.248 639.387H25.0488C22.998 639.387 20.7845 639.029 18.4082 638.312C16.0319 637.564 13.8184 636.376 11.7676 634.748C9.74935 633.12 8.05664 630.988 6.68945 628.352C5.35482 625.715 4.6875 622.492 4.6875 618.684C4.6875 614.875 5.35482 611.669 6.68945 609.064C8.05664 606.428 9.74935 604.296 11.7676 602.668C13.8184 601.008 16.0319 599.82 18.4082 599.104C20.7845 598.355 22.998 597.98 25.0488 597.98H68.2617V610.676H25.0488C22.64 610.676 20.752 611.408 19.3848 612.873C18.0501 614.338 17.3828 616.275 17.3828 618.684C17.3828 621.125 18.0501 623.062 19.3848 624.494C20.752 625.894 22.64 626.594 25.0488 626.594H54.248H54.3457C55.7129 626.626 57.1615 626.822 58.6914 627.18C60.2214 627.505 61.735 628.026 63.2324 628.742C64.7624 629.458 66.2109 630.37 67.5781 631.477C68.9453 632.551 70.1497 633.853 71.1914 635.383C72.2656 636.913 73.112 638.671 73.7305 640.656C74.349 642.642 74.6582 644.888 74.6582 647.395ZM241.211 650.178C241.211 652.359 240.934 654.328 240.381 656.086C239.827 657.811 239.095 659.341 238.184 660.676C237.272 661.978 236.214 663.101 235.01 664.045C233.805 664.956 232.536 665.705 231.201 666.291C229.899 666.877 228.564 667.316 227.197 667.609C225.863 667.87 224.593 668 223.389 668H200.488C198.73 668 196.81 667.691 194.727 667.072C192.643 666.454 190.706 665.445 188.916 664.045C187.158 662.613 185.677 660.773 184.473 658.527C183.301 656.249 182.715 653.465 182.715 650.178V632.99C182.715 629.735 183.301 626.984 184.473 624.738C185.677 622.46 187.158 620.62 188.916 619.221C190.706 617.788 192.643 616.763 194.727 616.145C196.81 615.526 198.73 615.217 200.488 615.217H223.389C226.644 615.217 229.411 615.803 231.689 616.975C233.968 618.146 235.807 619.628 237.207 621.418C238.607 623.176 239.616 625.096 240.234 627.18C240.885 629.263 241.211 631.2 241.211 632.99V650.178ZM228.516 633.088C228.516 631.33 228.076 630.028 227.197 629.182C226.318 628.335 225.049 627.912 223.389 627.912H200.586C198.893 627.912 197.607 628.352 196.729 629.23C195.85 630.077 195.41 631.33 195.41 632.99V650.178C195.41 651.838 195.85 653.107 196.729 653.986C197.607 654.865 198.893 655.305 200.586 655.305H223.389C225.114 655.305 226.4 654.865 227.246 653.986C228.092 653.107 228.516 651.838 228.516 650.178V633.088ZM375.244 668H369.58C367.757 668 365.804 667.691 363.721 667.072C361.67 666.454 359.749 665.445 357.959 664.045C356.169 662.613 354.688 660.773 353.516 658.527C352.344 656.249 351.758 653.465 351.758 650.178V592.902H364.453V650.178C364.453 651.74 364.941 652.993 365.918 653.938C366.895 654.849 368.115 655.305 369.58 655.305H375.244V668ZM540.332 661.604C540.332 662.515 540.169 663.361 539.844 664.143C539.518 664.924 539.062 665.607 538.477 666.193C537.923 666.747 537.256 667.186 536.475 667.512C535.726 667.837 534.912 668 534.033 668H505.322C503.76 668 502.083 667.821 500.293 667.463C498.535 667.105 496.794 666.535 495.068 665.754C493.343 664.94 491.667 663.931 490.039 662.727C488.444 661.49 487.044 660.008 485.84 658.283C484.635 656.525 483.659 654.507 482.91 652.229C482.194 649.95 481.836 647.378 481.836 644.514V615.217H494.531V644.514C494.531 646.174 494.808 647.671 495.361 649.006C495.947 650.308 496.729 651.431 497.705 652.375C498.682 653.319 499.821 654.051 501.123 654.572C502.458 655.061 503.89 655.305 505.42 655.305H527.637V615.217H540.332V661.604ZM700.244 627.912H678.076V668H665.234V627.912H648.73V615.217H665.234V597.98H678.076V615.217H700.244V627.912ZM821.484 604.377H808.789V592.902H821.484V604.377ZM821.484 668H808.789V615.217H821.484V668ZM991.113 650.178C991.113 652.359 990.837 654.328 990.283 656.086C989.73 657.811 988.997 659.341 988.086 660.676C987.174 661.978 986.117 663.101 984.912 664.045C983.708 664.956 982.438 665.705 981.104 666.291C979.801 666.877 978.467 667.316 977.1 667.609C975.765 667.87 974.495 668 973.291 668H950.391C948.633 668 946.712 667.691 944.629 667.072C942.546 666.454 940.609 665.445 938.818 664.045C937.061 662.613 935.579 660.773 934.375 658.527C933.203 656.249 932.617 653.465 932.617 650.178V632.99C932.617 629.735 933.203 626.984 934.375 624.738C935.579 622.46 937.061 620.62 938.818 619.221C940.609 617.788 942.546 616.763 944.629 616.145C946.712 615.526 948.633 615.217 950.391 615.217H973.291C976.546 615.217 979.313 615.803 981.592 616.975C983.87 618.146 985.71 619.628 987.109 621.418C988.509 623.176 989.518 625.096 990.137 627.18C990.788 629.263 991.113 631.2 991.113 632.99V650.178ZM978.418 633.088C978.418 631.33 977.979 630.028 977.1 629.182C976.221 628.335 974.951 627.912 973.291 627.912H950.488C948.796 627.912 947.51 628.352 946.631 629.23C945.752 630.077 945.312 631.33 945.312 632.99V650.178C945.312 651.838 945.752 653.107 946.631 653.986C947.51 654.865 948.796 655.305 950.488 655.305H973.291C975.016 655.305 976.302 654.865 977.148 653.986C977.995 653.107 978.418 651.838 978.418 650.178V633.088ZM1160.45 668H1147.75V638.703C1147.75 637.043 1147.46 635.562 1146.88 634.26C1146.32 632.925 1145.56 631.786 1144.58 630.842C1143.6 629.898 1142.45 629.182 1141.11 628.693C1139.81 628.173 1138.4 627.912 1136.87 627.912H1114.65V668H1101.95V621.516C1101.95 620.637 1102.12 619.823 1102.44 619.074C1102.77 618.293 1103.22 617.626 1103.81 617.072C1104.39 616.486 1105.08 616.031 1105.86 615.705C1106.64 615.38 1107.47 615.217 1108.35 615.217H1136.96C1138.56 615.217 1140.23 615.396 1141.99 615.754C1143.78 616.112 1145.54 616.698 1147.27 617.512C1149.02 618.293 1150.68 619.302 1152.25 620.539C1153.84 621.743 1155.24 623.225 1156.45 624.982C1157.68 626.708 1158.66 628.71 1159.38 630.988C1160.09 633.267 1160.45 635.839 1160.45 638.703V668ZM1322.61 650.178C1322.61 652.359 1322.33 654.328 1321.78 656.086C1321.22 657.811 1320.49 659.341 1319.58 660.676C1318.67 661.978 1317.61 663.101 1316.41 664.045C1315.2 664.956 1313.93 665.705 1312.6 666.291C1311.3 666.877 1309.96 667.316 1308.59 667.609C1307.26 667.87 1305.99 668 1304.79 668H1270.41V655.305H1304.69C1306.41 655.305 1307.71 654.865 1308.59 653.986C1309.47 653.107 1309.91 651.838 1309.91 650.178C1309.75 646.792 1308.04 645.1 1304.79 645.1H1285.11C1282.31 645.1 1279.93 644.611 1277.98 643.635C1276.03 642.658 1274.43 641.438 1273.19 639.973C1271.99 638.508 1271.11 636.929 1270.56 635.236C1270.04 633.544 1269.78 631.965 1269.78 630.5C1269.78 627.668 1270.28 625.292 1271.29 623.371C1272.3 621.418 1273.57 619.839 1275.1 618.635C1276.63 617.43 1278.29 616.568 1280.08 616.047C1281.87 615.493 1283.54 615.217 1285.11 615.217H1316.31V627.912H1285.21C1284.55 627.912 1284.03 627.993 1283.64 628.156C1283.28 628.286 1283.01 628.482 1282.81 628.742C1282.65 628.97 1282.55 629.23 1282.52 629.523C1282.49 629.784 1282.47 630.044 1282.47 630.305C1282.5 630.826 1282.6 631.232 1282.76 631.525C1282.93 631.818 1283.12 632.03 1283.35 632.16C1283.61 632.29 1283.89 632.372 1284.18 632.404C1284.51 632.404 1284.81 632.404 1285.11 632.404H1304.79C1308.04 632.404 1310.81 632.99 1313.09 634.162C1315.36 635.334 1317.2 636.815 1318.6 638.605C1320 640.363 1321.01 642.284 1321.63 644.367C1322.28 646.451 1322.61 648.387 1322.61 650.178Z" fill="black"/>
<path d="M74.6582 647.395C74.6582 649.901 74.3327 652.163 73.6816 654.182C73.0632 656.167 72.2331 657.925 71.1914 659.455C70.1497 660.985 68.929 662.287 67.5293 663.361C66.1296 664.436 64.681 665.314 63.1836 665.998C61.6862 666.682 60.1562 667.186 58.5938 667.512C57.0638 667.837 55.6152 668 54.248 668H5.27344V655.305H54.248C56.6895 655.305 58.5775 654.589 59.9121 653.156C61.2793 651.724 61.9629 649.803 61.9629 647.395C61.9629 646.223 61.7839 645.148 61.4258 644.172C61.0677 643.195 60.5469 642.349 59.8633 641.633C59.2122 640.917 58.3984 640.363 57.4219 639.973C56.4779 639.582 55.4199 639.387 54.248 639.387H25.0488C22.998 639.387 20.7845 639.029 18.4082 638.312C16.0319 637.564 13.8184 636.376 11.7676 634.748C9.74935 633.12 8.05664 630.988 6.68945 628.352C5.35482 625.715 4.6875 622.492 4.6875 618.684C4.6875 614.875 5.35482 611.669 6.68945 609.064C8.05664 606.428 9.74935 604.296 11.7676 602.668C13.8184 601.008 16.0319 599.82 18.4082 599.104C20.7845 598.355 22.998 597.98 25.0488 597.98H68.2617V610.676H25.0488C22.64 610.676 20.752 611.408 19.3848 612.873C18.0501 614.338 17.3828 616.275 17.3828 618.684C17.3828 621.125 18.0501 623.062 19.3848 624.494C20.752 625.894 22.64 626.594 25.0488 626.594H54.248H54.3457C55.7129 626.626 57.1615 626.822 58.6914 627.18C60.2214 627.505 61.735 628.026 63.2324 628.742C64.7624 629.458 66.2109 630.37 67.5781 631.477C68.9453 632.551 70.1497 633.853 71.1914 635.383C72.2656 636.913 73.112 638.671 73.7305 640.656C74.349 642.642 74.6582 644.888 74.6582 647.395ZM241.211 650.178C241.211 652.359 240.934 654.328 240.381 656.086C239.827 657.811 239.095 659.341 238.184 660.676C237.272 661.978 236.214 663.101 235.01 664.045C233.805 664.956 232.536 665.705 231.201 666.291C229.899 666.877 228.564 667.316 227.197 667.609C225.863 667.87 224.593 668 223.389 668H200.488C198.73 668 196.81 667.691 194.727 667.072C192.643 666.454 190.706 665.445 188.916 664.045C187.158 662.613 185.677 660.773 184.473 658.527C183.301 656.249 182.715 653.465 182.715 650.178V632.99C182.715 629.735 183.301 626.984 184.473 624.738C185.677 622.46 187.158 620.62 188.916 619.221C190.706 617.788 192.643 616.763 194.727 616.145C196.81 615.526 198.73 615.217 200.488 615.217H223.389C226.644 615.217 229.411 615.803 231.689 616.975C233.968 618.146 235.807 619.628 237.207 621.418C238.607 623.176 239.616 625.096 240.234 627.18C240.885 629.263 241.211 631.2 241.211 632.99V650.178ZM228.516 633.088C228.516 631.33 228.076 630.028 227.197 629.182C226.318 628.335 225.049 627.912 223.389 627.912H200.586C198.893 627.912 197.607 628.352 196.729 629.23C195.85 630.077 195.41 631.33 195.41 632.99V650.178C195.41 651.838 195.85 653.107 196.729 653.986C197.607 654.865 198.893 655.305 200.586 655.305H223.389C225.114 655.305 226.4 654.865 227.246 653.986C228.092 653.107 228.516 651.838 228.516 650.178V633.088ZM375.244 668H369.58C367.757 668 365.804 667.691 363.721 667.072C361.67 666.454 359.749 665.445 357.959 664.045C356.169 662.613 354.688 660.773 353.516 658.527C352.344 656.249 351.758 653.465 351.758 650.178V592.902H364.453V650.178C364.453 651.74 364.941 652.993 365.918 653.938C366.895 654.849 368.115 655.305 369.58 655.305H375.244V668ZM540.332 661.604C540.332 662.515 540.169 663.361 539.844 664.143C539.518 664.924 539.062 665.607 538.477 666.193C537.923 666.747 537.256 667.186 536.475 667.512C535.726 667.837 534.912 668 534.033 668H505.322C503.76 668 502.083 667.821 500.293 667.463C498.535 667.105 496.794 666.535 495.068 665.754C493.343 664.94 491.667 663.931 490.039 662.727C488.444 661.49 487.044 660.008 485.84 658.283C484.635 656.525 483.659 654.507 482.91 652.229C482.194 649.95 481.836 647.378 481.836 644.514V615.217H494.531V644.514C494.531 646.174 494.808 647.671 495.361 649.006C495.947 650.308 496.729 651.431 497.705 652.375C498.682 653.319 499.821 654.051 501.123 654.572C502.458 655.061 503.89 655.305 505.42 655.305H527.637V615.217H540.332V661.604ZM700.244 627.912H678.076V668H665.234V627.912H648.73V615.217H665.234V597.98H678.076V615.217H700.244V627.912ZM821.484 604.377H808.789V592.902H821.484V604.377ZM821.484 668H808.789V615.217H821.484V668ZM991.113 650.178C991.113 652.359 990.837 654.328 990.283 656.086C989.73 657.811 988.997 659.341 988.086 660.676C987.174 661.978 986.117 663.101 984.912 664.045C983.708 664.956 982.438 665.705 981.104 666.291C979.801 666.877 978.467 667.316 977.1 667.609C975.765 667.87 974.495 668 973.291 668H950.391C948.633 668 946.712 667.691 944.629 667.072C942.546 666.454 940.609 665.445 938.818 664.045C937.061 662.613 935.579 660.773 934.375 658.527C933.203 656.249 932.617 653.465 932.617 650.178V632.99C932.617 629.735 933.203 626.984 934.375 624.738C935.579 622.46 937.061 620.62 938.818 619.221C940.609 617.788 942.546 616.763 944.629 616.145C946.712 615.526 948.633 615.217 950.391 615.217H973.291C976.546 615.217 979.313 615.803 981.592 616.975C983.87 618.146 985.71 619.628 987.109 621.418C988.509 623.176 989.518 625.096 990.137 627.18C990.788 629.263 991.113 631.2 991.113 632.99V650.178ZM978.418 633.088C978.418 631.33 977.979 630.028 977.1 629.182C976.221 628.335 974.951 627.912 973.291 627.912H950.488C948.796 627.912 947.51 628.352 946.631 629.23C945.752 630.077 945.312 631.33 945.312 632.99V650.178C945.312 651.838 945.752 653.107 946.631 653.986C947.51 654.865 948.796 655.305 950.488 655.305H973.291C975.016 655.305 976.302 654.865 977.148 653.986C977.995 653.107 978.418 651.838 978.418 650.178V633.088ZM1160.45 668H1147.75V638.703C1147.75 637.043 1147.46 635.562 1146.88 634.26C1146.32 632.925 1145.56 631.786 1144.58 630.842C1143.6 629.898 1142.45 629.182 1141.11 628.693C1139.81 628.173 1138.4 627.912 1136.87 627.912H1114.65V668H1101.95V621.516C1101.95 620.637 1102.12 619.823 1102.44 619.074C1102.77 618.293 1103.22 617.626 1103.81 617.072C1104.39 616.486 1105.08 616.031 1105.86 615.705C1106.64 615.38 1107.47 615.217 1108.35 615.217H1136.96C1138.56 615.217 1140.23 615.396 1141.99 615.754C1143.78 616.112 1145.54 616.698 1147.27 617.512C1149.02 618.293 1150.68 619.302 1152.25 620.539C1153.84 621.743 1155.24 623.225 1156.45 624.982C1157.68 626.708 1158.66 628.71 1159.38 630.988C1160.09 633.267 1160.45 635.839 1160.45 638.703V668ZM1322.61 650.178C1322.61 652.359 1322.33 654.328 1321.78 656.086C1321.22 657.811 1320.49 659.341 1319.58 660.676C1318.67 661.978 1317.61 663.101 1316.41 664.045C1315.2 664.956 1313.93 665.705 1312.6 666.291C1311.3 666.877 1309.96 667.316 1308.59 667.609C1307.26 667.87 1305.99 668 1304.79 668H1270.41V655.305H1304.69C1306.41 655.305 1307.71 654.865 1308.59 653.986C1309.47 653.107 1309.91 651.838 1309.91 650.178C1309.75 646.792 1308.04 645.1 1304.79 645.1H1285.11C1282.31 645.1 1279.93 644.611 1277.98 643.635C1276.03 642.658 1274.43 641.438 1273.19 639.973C1271.99 638.508 1271.11 636.929 1270.56 635.236C1270.04 633.544 1269.78 631.965 1269.78 630.5C1269.78 627.668 1270.28 625.292 1271.29 623.371C1272.3 621.418 1273.57 619.839 1275.1 618.635C1276.63 617.43 1278.29 616.568 1280.08 616.047C1281.87 615.493 1283.54 615.217 1285.11 615.217H1316.31V627.912H1285.21C1284.55 627.912 1284.03 627.993 1283.64 628.156C1283.28 628.286 1283.01 628.482 1282.81 628.742C1282.65 628.97 1282.55 629.23 1282.52 629.523C1282.49 629.784 1282.47 630.044 1282.47 630.305C1282.5 630.826 1282.6 631.232 1282.76 631.525C1282.93 631.818 1283.12 632.03 1283.35 632.16C1283.61 632.29 1283.89 632.372 1284.18 632.404C1284.51 632.404 1284.81 632.404 1285.11 632.404H1304.79C1308.04 632.404 1310.81 632.99 1313.09 634.162C1315.36 635.334 1317.2 636.815 1318.6 638.605C1320 640.363 1321.01 642.284 1321.63 644.367C1322.28 646.451 1322.61 648.387 1322.61 650.178Z" fill="url(#paint1_linear_2_166)"/>
<defs>
<linearGradient id="paint0_linear_2_166" x1="663.5" y1="0" x2="663.5" y2="637" gradientUnits="userSpaceOnUse">
<stop stop-color="#154B72"/>
<stop offset="1" stop-color="#09172D"/>
</linearGradient>
<linearGradient id="paint1_linear_2_166" x1="663" y1="569" x2="663" y2="696" gradientUnits="userSpaceOnUse">
<stop stop-color="#154B72"/>
<stop offset="1" stop-color="#09172D"/>
</linearGradient>
</defs>
</svg>
