<svg width="1326" height="1125" viewBox="0 0 1326 1125" fill="none" xmlns="http://www.w3.org/2000/svg">
<path d="M598.372 513.971H758.356C765.278 513.971 770.884 508.365 770.884 501.444C770.884 494.522 765.278 488.916 758.356 488.916H598.372C591.45 488.916 585.844 494.522 585.844 501.444C585.844 508.365 591.45 513.971 598.372 513.971Z" fill="url(#paint0_linear_2_167)"/>
<path d="M598.372 513.971H758.356C765.278 513.971 770.884 508.365 770.884 501.444C770.884 494.522 765.278 488.916 758.356 488.916H598.372C591.45 488.916 585.844 494.522 585.844 501.444C585.844 508.365 591.45 513.971 598.372 513.971Z" fill="url(#paint1_linear_2_167)"/>
<path d="M758.356 525.102H598.372C591.45 525.102 585.844 530.708 585.844 537.629C585.844 544.551 591.45 550.157 598.372 550.157H758.356C765.278 550.157 770.884 544.551 770.884 537.629C770.884 530.708 765.278 525.102 758.356 525.102Z" fill="url(#paint2_linear_2_167)"/>
<path d="M758.356 525.102H598.372C591.45 525.102 585.844 530.708 585.844 537.629C585.844 544.551 591.45 550.157 598.372 550.157H758.356C765.278 550.157 770.884 544.551 770.884 537.629C770.884 530.708 765.278 525.102 758.356 525.102Z" fill="url(#paint3_linear_2_167)"/>
<path d="M727.744 561.271H628.968C622.047 561.271 616.44 566.878 616.44 573.799C616.44 580.721 622.047 586.327 628.968 586.327H638.027C643.584 603.294 659.531 615.542 678.34 615.542C697.148 615.542 713.095 603.294 718.652 586.327H727.711C734.632 586.327 740.239 580.721 740.239 573.799C740.239 566.878 734.632 561.271 727.711 561.271H727.744Z" fill="url(#paint4_linear_2_167)"/>
<path d="M727.744 561.271H628.968C622.047 561.271 616.44 566.878 616.44 573.799C616.44 580.721 622.047 586.327 628.968 586.327H638.027C643.584 603.294 659.531 615.542 678.34 615.542C697.148 615.542 713.095 603.294 718.652 586.327H727.711C734.632 586.327 740.239 580.721 740.239 573.799C740.239 566.878 734.632 561.271 727.711 561.271H727.744Z" fill="url(#paint5_linear_2_167)"/>
<path d="M837.649 184.27C847.645 184.27 855.734 176.181 855.734 166.185C855.734 156.189 848.007 148.495 838.323 148.133L819.367 104.582C823.757 100.521 826.519 94.7176 826.519 88.2729C826.519 75.9752 816.556 66.0122 804.258 66.0122C801.283 66.0122 798.438 66.6041 795.841 67.6727L712.667 25.0585C713.407 23.0856 713.835 20.9483 713.835 18.7124C713.835 8.71644 705.746 0.627625 695.75 0.627625C685.754 0.627625 677.665 8.71644 677.665 18.7124C677.665 20.0605 677.83 21.3593 678.109 22.6253L634.015 37.1259C628.918 29.3988 620.156 24.2858 610.209 24.2858C594.459 24.2858 581.684 37.0602 581.684 52.8103C581.684 61.491 585.581 69.2674 591.713 74.4956L574.072 99.058C565.425 95.7041 556.037 93.8627 546.205 93.8627C503.575 93.8463 469 128.421 469 171.052C469 213.682 503.575 248.257 546.205 248.257C579.103 248.257 607.184 227.657 618.298 198.672L692.248 223.054L684.422 240.448C681.249 239.215 677.797 238.524 674.18 238.524C658.43 238.524 645.655 251.299 645.655 267.049C645.655 282.799 658.43 295.573 674.18 295.573C681.479 295.573 688.121 292.811 693.169 288.29L726.083 325.364C724.488 328.06 723.567 331.184 723.567 334.538C723.567 344.534 731.656 352.623 741.652 352.623C751.648 352.623 759.737 344.534 759.737 334.538C759.737 329.819 757.912 325.528 754.953 322.322L772.331 294.998C779.532 298.927 787.801 301.163 796.597 301.163C824.645 301.163 847.366 278.426 847.366 250.394C847.366 231.175 836.696 214.472 820.962 205.84L832.388 183.53C834.049 184.04 835.808 184.303 837.633 184.303L837.649 184.27ZM708.557 31.5032L788.574 72.5063C784.776 76.2712 782.376 81.4007 782.063 87.1056L759.244 90.0814C756.087 69.3825 738.2 53.5173 716.613 53.5173C715.462 53.5173 714.344 53.583 713.21 53.6652L704.809 34.3639C706.173 33.5747 707.423 32.6212 708.524 31.5197L708.557 31.5032ZM622.819 161.582L684.85 125.774C691.262 132.761 699.926 137.611 709.708 139.19L707.817 176.017C701.849 176.625 696.753 180.143 693.925 185.125L623.214 176.411C623.329 174.636 623.427 172.844 623.427 171.052C623.427 167.846 623.214 164.689 622.835 161.582H622.819ZM705.729 211.644C706.995 211.923 708.311 212.088 709.659 212.088C714.673 212.088 719.194 210.049 722.482 206.761L752.98 224.369C751.237 227.279 749.79 230.386 748.656 233.641L702.655 218.467L705.729 211.627V211.644ZM637.336 44.0475L681.315 29.5961C684.62 33.9693 689.848 36.83 695.75 36.83C696.358 36.83 696.966 36.7971 697.558 36.7314L705.499 54.9641C693.169 58.2522 683.008 66.8507 677.632 78.1783L637.106 62.1486C638.125 59.2222 638.701 56.082 638.701 52.8103C638.701 49.7524 638.207 46.8095 637.32 44.0475H637.336ZM595.692 111.799C591.253 108.084 586.37 104.878 581.158 102.215L598.109 78.6058C601.791 80.332 605.869 81.3185 610.209 81.3185C619.958 81.3185 628.557 76.4191 633.703 68.9551L675.018 85.2971C674.032 88.9141 673.506 92.6954 673.506 96.6247C673.506 101.968 674.476 107.065 676.251 111.799H595.692ZM603.583 119.395H680C680.065 119.494 680.131 119.592 680.181 119.691L621.405 153.625C618.413 140.669 612.182 128.947 603.567 119.412L603.583 119.395ZM620.682 191.455C621.356 189.005 621.898 186.506 622.326 183.974L691.656 192.507C691.623 193 691.574 193.493 691.574 194.003C691.574 199.922 694.435 205.166 698.824 208.454L695.388 216.083L620.665 191.438L620.682 191.455ZM691.114 244.131L699.515 225.454L746.7 241.007C746.141 244.032 745.828 247.156 745.828 250.345C745.828 252.252 745.943 254.143 746.141 255.984L699.317 253.584C697.312 249.835 694.484 246.613 691.097 244.114L691.114 244.131ZM748.755 317.883C746.568 316.946 744.184 316.437 741.652 316.437C737.789 316.437 734.205 317.67 731.262 319.741L698.167 282.454C701.027 278.015 702.704 272.737 702.704 267.049C702.704 265.109 702.507 263.202 702.129 261.36L747.604 263.695C750.58 274.661 757.139 284.164 765.952 290.838L748.738 317.883H748.755ZM757.37 218.138L726.576 200.365C727.316 198.393 727.743 196.255 727.743 194.019C727.743 186.029 722.565 179.256 715.364 176.872L717.271 139.749C725.244 139.634 732.692 137.348 739.071 133.468L788.294 200.283C775.898 202.322 765.014 208.849 757.37 218.154V218.138ZM814.057 202.667C808.812 200.744 803.14 199.675 797.238 199.609L745.187 128.947C746.305 127.944 747.39 126.908 748.409 125.791L819.663 164.393C819.597 164.985 819.565 165.593 819.565 166.202C819.565 171.627 821.965 176.494 825.763 179.815L814.057 202.667ZM822.064 157.061L753.078 119.675C757.123 113.279 759.523 105.766 759.721 97.6934L782.935 94.6683C785.68 103.859 794.18 110.566 804.258 110.566C807.333 110.566 810.243 109.942 812.906 108.824L830.629 149.547C827.029 151.06 824.02 153.74 822.064 157.077V157.061Z" fill="url(#paint6_linear_2_167)"/>
<path d="M784.546 314.891C764.949 356.009 754.723 401.04 754.723 447.321C754.723 452.796 750.267 457.251 744.792 457.251H611.245C605.77 457.251 601.315 452.796 601.315 447.321C601.315 386.063 582.638 325.775 547.291 272.951C545.268 269.926 543.361 266.851 541.569 263.711C531.179 260.933 522.416 256.987 515.379 253.058C519.769 263.629 525.178 273.822 531.606 283.44C564.866 333.14 582.441 389.811 582.441 447.321C582.441 463.186 595.347 476.108 611.228 476.108H744.759C760.641 476.108 773.547 463.203 773.547 447.321C773.547 401.27 784.332 356.519 804.965 316.058C797.6 316.617 790.695 316.058 784.513 314.891H784.546Z" fill="url(#paint7_linear_2_167)"/>
<path d="M404.883 892.018C404.883 896.575 404.069 900.807 402.441 904.713C400.814 908.619 398.535 912.037 395.605 914.967C392.676 917.734 389.258 919.931 385.352 921.559C381.445 923.186 377.295 924 372.9 924H229.834C216.325 924 202.653 922.535 188.818 919.605C174.984 916.676 161.556 912.2 148.535 906.178C135.677 899.993 123.551 892.18 112.158 882.74C100.765 873.3 90.7552 862.151 82.1289 849.293C73.6654 836.272 66.9922 821.461 62.1094 804.859C57.2266 788.095 54.7852 769.459 54.7852 748.951V573.902H118.262V748.951C118.262 766.855 120.703 781.992 125.586 794.361C130.632 806.731 136.979 817.066 144.629 825.367C152.279 833.668 160.661 840.178 169.775 844.898C178.89 849.618 187.516 853.118 195.654 855.396C203.955 857.675 211.198 859.14 217.383 859.791C223.73 860.279 227.881 860.523 229.834 860.523H341.406V573.902H404.883V892.018ZM886.328 924H822.363V715.504L709.814 913.502C707.048 918.548 703.141 922.372 698.096 924.977C693.213 927.581 687.923 928.883 682.227 928.883C676.693 928.883 671.484 927.581 666.602 924.977C661.882 922.372 658.138 918.548 655.371 913.502L542.334 715.504V924H478.857V601.002C478.857 593.678 480.973 587.167 485.205 581.471C489.6 575.774 495.296 571.949 502.295 569.996C505.713 569.182 509.131 568.938 512.549 569.264C515.967 569.426 519.222 570.159 522.314 571.461C525.57 572.6 528.499 574.309 531.104 576.588C533.708 578.704 535.905 581.308 537.695 584.4L682.227 835.621L826.758 584.4C830.501 578.215 835.628 573.821 842.139 571.217C848.812 568.613 855.729 568.206 862.891 569.996C869.727 571.949 875.342 575.774 879.736 581.471C884.131 587.167 886.328 593.678 886.328 601.002V924ZM1248.14 780.934H1047.71V716.969H1248.14V780.934ZM1276.71 924H1047.71C1038.92 924 1029.31 922.454 1018.9 919.361C1008.48 916.269 998.796 911.223 989.844 904.225C981.055 897.063 973.649 887.867 967.627 876.637C961.768 865.243 958.838 851.327 958.838 834.889V605.885C958.838 601.49 959.652 597.34 961.279 593.434C962.907 589.527 965.104 586.109 967.871 583.18C970.801 580.25 974.219 577.971 978.125 576.344C982.031 574.716 986.263 573.902 990.82 573.902H1276.71V637.379H1022.31V834.889C1022.31 843.189 1024.51 849.537 1028.91 853.932C1033.3 858.326 1039.73 860.523 1048.19 860.523H1276.71V924Z" fill="black"/>
<path d="M404.883 892.018C404.883 896.575 404.069 900.807 402.441 904.713C400.814 908.619 398.535 912.037 395.605 914.967C392.676 917.734 389.258 919.931 385.352 921.559C381.445 923.186 377.295 924 372.9 924H229.834C216.325 924 202.653 922.535 188.818 919.605C174.984 916.676 161.556 912.2 148.535 906.178C135.677 899.993 123.551 892.18 112.158 882.74C100.765 873.3 90.7552 862.151 82.1289 849.293C73.6654 836.272 66.9922 821.461 62.1094 804.859C57.2266 788.095 54.7852 769.459 54.7852 748.951V573.902H118.262V748.951C118.262 766.855 120.703 781.992 125.586 794.361C130.632 806.731 136.979 817.066 144.629 825.367C152.279 833.668 160.661 840.178 169.775 844.898C178.89 849.618 187.516 853.118 195.654 855.396C203.955 857.675 211.198 859.14 217.383 859.791C223.73 860.279 227.881 860.523 229.834 860.523H341.406V573.902H404.883V892.018ZM886.328 924H822.363V715.504L709.814 913.502C707.048 918.548 703.141 922.372 698.096 924.977C693.213 927.581 687.923 928.883 682.227 928.883C676.693 928.883 671.484 927.581 666.602 924.977C661.882 922.372 658.138 918.548 655.371 913.502L542.334 715.504V924H478.857V601.002C478.857 593.678 480.973 587.167 485.205 581.471C489.6 575.774 495.296 571.949 502.295 569.996C505.713 569.182 509.131 568.938 512.549 569.264C515.967 569.426 519.222 570.159 522.314 571.461C525.57 572.6 528.499 574.309 531.104 576.588C533.708 578.704 535.905 581.308 537.695 584.4L682.227 835.621L826.758 584.4C830.501 578.215 835.628 573.821 842.139 571.217C848.812 568.613 855.729 568.206 862.891 569.996C869.727 571.949 875.342 575.774 879.736 581.471C884.131 587.167 886.328 593.678 886.328 601.002V924ZM1248.14 780.934H1047.71V716.969H1248.14V780.934ZM1276.71 924H1047.71C1038.92 924 1029.31 922.454 1018.9 919.361C1008.48 916.269 998.796 911.223 989.844 904.225C981.055 897.063 973.649 887.867 967.627 876.637C961.768 865.243 958.838 851.327 958.838 834.889V605.885C958.838 601.49 959.652 597.34 961.279 593.434C962.907 589.527 965.104 586.109 967.871 583.18C970.801 580.25 974.219 577.971 978.125 576.344C982.031 574.716 986.263 573.902 990.82 573.902H1276.71V637.379H1022.31V834.889C1022.31 843.189 1024.51 849.537 1028.91 853.932C1033.3 858.326 1039.73 860.523 1048.19 860.523H1276.71V924Z" fill="url(#paint8_linear_2_167)"/>
<path d="M74.6582 1076.39C74.6582 1078.9 74.3327 1081.16 73.6816 1083.18C73.0632 1085.17 72.2331 1086.93 71.1914 1088.46C70.1497 1089.99 68.929 1091.29 67.5293 1092.36C66.1296 1093.44 64.681 1094.31 63.1836 1095C61.6862 1095.68 60.1562 1096.19 58.5938 1096.51C57.0638 1096.84 55.6152 1097 54.248 1097H5.27344V1084.3H54.248C56.6895 1084.3 58.5775 1083.59 59.9121 1082.16C61.2793 1080.72 61.9629 1078.8 61.9629 1076.39C61.9629 1075.22 61.7839 1074.15 61.4258 1073.17C61.0677 1072.2 60.5469 1071.35 59.8633 1070.63C59.2122 1069.92 58.3984 1069.36 57.4219 1068.97C56.4779 1068.58 55.4199 1068.39 54.248 1068.39H25.0488C22.998 1068.39 20.7845 1068.03 18.4082 1067.31C16.0319 1066.56 13.8184 1065.38 11.7676 1063.75C9.74935 1062.12 8.05664 1059.99 6.68945 1057.35C5.35482 1054.71 4.6875 1051.49 4.6875 1047.68C4.6875 1043.88 5.35482 1040.67 6.68945 1038.06C8.05664 1035.43 9.74935 1033.3 11.7676 1031.67C13.8184 1030.01 16.0319 1028.82 18.4082 1028.1C20.7845 1027.35 22.998 1026.98 25.0488 1026.98H68.2617V1039.68H25.0488C22.64 1039.68 20.752 1040.41 19.3848 1041.87C18.0501 1043.34 17.3828 1045.27 17.3828 1047.68C17.3828 1050.12 18.0501 1052.06 19.3848 1053.49C20.752 1054.89 22.64 1055.59 25.0488 1055.59H54.248H54.3457C55.7129 1055.63 57.1615 1055.82 58.6914 1056.18C60.2214 1056.51 61.735 1057.03 63.2324 1057.74C64.7624 1058.46 66.2109 1059.37 67.5781 1060.48C68.9453 1061.55 70.1497 1062.85 71.1914 1064.38C72.2656 1065.91 73.112 1067.67 73.7305 1069.66C74.349 1071.64 74.6582 1073.89 74.6582 1076.39ZM241.211 1079.18C241.211 1081.36 240.934 1083.33 240.381 1085.09C239.827 1086.81 239.095 1088.34 238.184 1089.68C237.272 1090.98 236.214 1092.1 235.01 1093.04C233.805 1093.96 232.536 1094.71 231.201 1095.29C229.899 1095.88 228.564 1096.32 227.197 1096.61C225.863 1096.87 224.593 1097 223.389 1097H200.488C198.73 1097 196.81 1096.69 194.727 1096.07C192.643 1095.45 190.706 1094.44 188.916 1093.04C187.158 1091.61 185.677 1089.77 184.473 1087.53C183.301 1085.25 182.715 1082.47 182.715 1079.18V1061.99C182.715 1058.74 183.301 1055.98 184.473 1053.74C185.677 1051.46 187.158 1049.62 188.916 1048.22C190.706 1046.79 192.643 1045.76 194.727 1045.14C196.81 1044.53 198.73 1044.22 200.488 1044.22H223.389C226.644 1044.22 229.411 1044.8 231.689 1045.97C233.968 1047.15 235.807 1048.63 237.207 1050.42C238.607 1052.18 239.616 1054.1 240.234 1056.18C240.885 1058.26 241.211 1060.2 241.211 1061.99V1079.18ZM228.516 1062.09C228.516 1060.33 228.076 1059.03 227.197 1058.18C226.318 1057.34 225.049 1056.91 223.389 1056.91H200.586C198.893 1056.91 197.607 1057.35 196.729 1058.23C195.85 1059.08 195.41 1060.33 195.41 1061.99V1079.18C195.41 1080.84 195.85 1082.11 196.729 1082.99C197.607 1083.87 198.893 1084.3 200.586 1084.3H223.389C225.114 1084.3 226.4 1083.87 227.246 1082.99C228.092 1082.11 228.516 1080.84 228.516 1079.18V1062.09ZM375.244 1097H369.58C367.757 1097 365.804 1096.69 363.721 1096.07C361.67 1095.45 359.749 1094.44 357.959 1093.04C356.169 1091.61 354.688 1089.77 353.516 1087.53C352.344 1085.25 351.758 1082.47 351.758 1079.18V1021.9H364.453V1079.18C364.453 1080.74 364.941 1081.99 365.918 1082.94C366.895 1083.85 368.115 1084.3 369.58 1084.3H375.244V1097ZM540.332 1090.6C540.332 1091.51 540.169 1092.36 539.844 1093.14C539.518 1093.92 539.062 1094.61 538.477 1095.19C537.923 1095.75 537.256 1096.19 536.475 1096.51C535.726 1096.84 534.912 1097 534.033 1097H505.322C503.76 1097 502.083 1096.82 500.293 1096.46C498.535 1096.1 496.794 1095.54 495.068 1094.75C493.343 1093.94 491.667 1092.93 490.039 1091.73C488.444 1090.49 487.044 1089.01 485.84 1087.28C484.635 1085.53 483.659 1083.51 482.91 1081.23C482.194 1078.95 481.836 1076.38 481.836 1073.51V1044.22H494.531V1073.51C494.531 1075.17 494.808 1076.67 495.361 1078.01C495.947 1079.31 496.729 1080.43 497.705 1081.38C498.682 1082.32 499.821 1083.05 501.123 1083.57C502.458 1084.06 503.89 1084.3 505.42 1084.3H527.637V1044.22H540.332V1090.6ZM700.244 1056.91H678.076V1097H665.234V1056.91H648.73V1044.22H665.234V1026.98H678.076V1044.22H700.244V1056.91ZM821.484 1033.38H808.789V1021.9H821.484V1033.38ZM821.484 1097H808.789V1044.22H821.484V1097ZM991.113 1079.18C991.113 1081.36 990.837 1083.33 990.283 1085.09C989.73 1086.81 988.997 1088.34 988.086 1089.68C987.174 1090.98 986.117 1092.1 984.912 1093.04C983.708 1093.96 982.438 1094.71 981.104 1095.29C979.801 1095.88 978.467 1096.32 977.1 1096.61C975.765 1096.87 974.495 1097 973.291 1097H950.391C948.633 1097 946.712 1096.69 944.629 1096.07C942.546 1095.45 940.609 1094.44 938.818 1093.04C937.061 1091.61 935.579 1089.77 934.375 1087.53C933.203 1085.25 932.617 1082.47 932.617 1079.18V1061.99C932.617 1058.74 933.203 1055.98 934.375 1053.74C935.579 1051.46 937.061 1049.62 938.818 1048.22C940.609 1046.79 942.546 1045.76 944.629 1045.14C946.712 1044.53 948.633 1044.22 950.391 1044.22H973.291C976.546 1044.22 979.313 1044.8 981.592 1045.97C983.87 1047.15 985.71 1048.63 987.109 1050.42C988.509 1052.18 989.518 1054.1 990.137 1056.18C990.788 1058.26 991.113 1060.2 991.113 1061.99V1079.18ZM978.418 1062.09C978.418 1060.33 977.979 1059.03 977.1 1058.18C976.221 1057.34 974.951 1056.91 973.291 1056.91H950.488C948.796 1056.91 947.51 1057.35 946.631 1058.23C945.752 1059.08 945.312 1060.33 945.312 1061.99V1079.18C945.312 1080.84 945.752 1082.11 946.631 1082.99C947.51 1083.87 948.796 1084.3 950.488 1084.3H973.291C975.016 1084.3 976.302 1083.87 977.148 1082.99C977.995 1082.11 978.418 1080.84 978.418 1079.18V1062.09ZM1160.45 1097H1147.75V1067.7C1147.75 1066.04 1147.46 1064.56 1146.88 1063.26C1146.32 1061.93 1145.56 1060.79 1144.58 1059.84C1143.6 1058.9 1142.45 1058.18 1141.11 1057.69C1139.81 1057.17 1138.4 1056.91 1136.87 1056.91H1114.65V1097H1101.95V1050.52C1101.95 1049.64 1102.12 1048.82 1102.44 1048.07C1102.77 1047.29 1103.22 1046.63 1103.81 1046.07C1104.39 1045.49 1105.08 1045.03 1105.86 1044.71C1106.64 1044.38 1107.47 1044.22 1108.35 1044.22H1136.96C1138.56 1044.22 1140.23 1044.4 1141.99 1044.75C1143.78 1045.11 1145.54 1045.7 1147.27 1046.51C1149.02 1047.29 1150.68 1048.3 1152.25 1049.54C1153.84 1050.74 1155.24 1052.22 1156.45 1053.98C1157.68 1055.71 1158.66 1057.71 1159.38 1059.99C1160.09 1062.27 1160.45 1064.84 1160.45 1067.7V1097ZM1322.61 1079.18C1322.61 1081.36 1322.33 1083.33 1321.78 1085.09C1321.22 1086.81 1320.49 1088.34 1319.58 1089.68C1318.67 1090.98 1317.61 1092.1 1316.41 1093.04C1315.2 1093.96 1313.93 1094.71 1312.6 1095.29C1311.3 1095.88 1309.96 1096.32 1308.59 1096.61C1307.26 1096.87 1305.99 1097 1304.79 1097H1270.41V1084.3H1304.69C1306.41 1084.3 1307.71 1083.87 1308.59 1082.99C1309.47 1082.11 1309.91 1080.84 1309.91 1079.18C1309.75 1075.79 1308.04 1074.1 1304.79 1074.1H1285.11C1282.31 1074.1 1279.93 1073.61 1277.98 1072.63C1276.03 1071.66 1274.43 1070.44 1273.19 1068.97C1271.99 1067.51 1271.11 1065.93 1270.56 1064.24C1270.04 1062.54 1269.78 1060.96 1269.78 1059.5C1269.78 1056.67 1270.28 1054.29 1271.29 1052.37C1272.3 1050.42 1273.57 1048.84 1275.1 1047.63C1276.63 1046.43 1278.29 1045.57 1280.08 1045.05C1281.87 1044.49 1283.54 1044.22 1285.11 1044.22H1316.31V1056.91H1285.21C1284.55 1056.91 1284.03 1056.99 1283.64 1057.16C1283.28 1057.29 1283.01 1057.48 1282.81 1057.74C1282.65 1057.97 1282.55 1058.23 1282.52 1058.52C1282.49 1058.78 1282.47 1059.04 1282.47 1059.3C1282.5 1059.83 1282.6 1060.23 1282.76 1060.53C1282.93 1060.82 1283.12 1061.03 1283.35 1061.16C1283.61 1061.29 1283.89 1061.37 1284.18 1061.4C1284.51 1061.4 1284.81 1061.4 1285.11 1061.4H1304.79C1308.04 1061.4 1310.81 1061.99 1313.09 1063.16C1315.36 1064.33 1317.2 1065.82 1318.6 1067.61C1320 1069.36 1321.01 1071.28 1321.63 1073.37C1322.28 1075.45 1322.61 1077.39 1322.61 1079.18Z" fill="black"/>
<path d="M74.6582 1076.39C74.6582 1078.9 74.3327 1081.16 73.6816 1083.18C73.0632 1085.17 72.2331 1086.93 71.1914 1088.46C70.1497 1089.99 68.929 1091.29 67.5293 1092.36C66.1296 1093.44 64.681 1094.31 63.1836 1095C61.6862 1095.68 60.1562 1096.19 58.5938 1096.51C57.0638 1096.84 55.6152 1097 54.248 1097H5.27344V1084.3H54.248C56.6895 1084.3 58.5775 1083.59 59.9121 1082.16C61.2793 1080.72 61.9629 1078.8 61.9629 1076.39C61.9629 1075.22 61.7839 1074.15 61.4258 1073.17C61.0677 1072.2 60.5469 1071.35 59.8633 1070.63C59.2122 1069.92 58.3984 1069.36 57.4219 1068.97C56.4779 1068.58 55.4199 1068.39 54.248 1068.39H25.0488C22.998 1068.39 20.7845 1068.03 18.4082 1067.31C16.0319 1066.56 13.8184 1065.38 11.7676 1063.75C9.74935 1062.12 8.05664 1059.99 6.68945 1057.35C5.35482 1054.71 4.6875 1051.49 4.6875 1047.68C4.6875 1043.88 5.35482 1040.67 6.68945 1038.06C8.05664 1035.43 9.74935 1033.3 11.7676 1031.67C13.8184 1030.01 16.0319 1028.82 18.4082 1028.1C20.7845 1027.35 22.998 1026.98 25.0488 1026.98H68.2617V1039.68H25.0488C22.64 1039.68 20.752 1040.41 19.3848 1041.87C18.0501 1043.34 17.3828 1045.27 17.3828 1047.68C17.3828 1050.12 18.0501 1052.06 19.3848 1053.49C20.752 1054.89 22.64 1055.59 25.0488 1055.59H54.248H54.3457C55.7129 1055.63 57.1615 1055.82 58.6914 1056.18C60.2214 1056.51 61.735 1057.03 63.2324 1057.74C64.7624 1058.46 66.2109 1059.37 67.5781 1060.48C68.9453 1061.55 70.1497 1062.85 71.1914 1064.38C72.2656 1065.91 73.112 1067.67 73.7305 1069.66C74.349 1071.64 74.6582 1073.89 74.6582 1076.39ZM241.211 1079.18C241.211 1081.36 240.934 1083.33 240.381 1085.09C239.827 1086.81 239.095 1088.34 238.184 1089.68C237.272 1090.98 236.214 1092.1 235.01 1093.04C233.805 1093.96 232.536 1094.71 231.201 1095.29C229.899 1095.88 228.564 1096.32 227.197 1096.61C225.863 1096.87 224.593 1097 223.389 1097H200.488C198.73 1097 196.81 1096.69 194.727 1096.07C192.643 1095.45 190.706 1094.44 188.916 1093.04C187.158 1091.61 185.677 1089.77 184.473 1087.53C183.301 1085.25 182.715 1082.47 182.715 1079.18V1061.99C182.715 1058.74 183.301 1055.98 184.473 1053.74C185.677 1051.46 187.158 1049.62 188.916 1048.22C190.706 1046.79 192.643 1045.76 194.727 1045.14C196.81 1044.53 198.73 1044.22 200.488 1044.22H223.389C226.644 1044.22 229.411 1044.8 231.689 1045.97C233.968 1047.15 235.807 1048.63 237.207 1050.42C238.607 1052.18 239.616 1054.1 240.234 1056.18C240.885 1058.26 241.211 1060.2 241.211 1061.99V1079.18ZM228.516 1062.09C228.516 1060.33 228.076 1059.03 227.197 1058.18C226.318 1057.34 225.049 1056.91 223.389 1056.91H200.586C198.893 1056.91 197.607 1057.35 196.729 1058.23C195.85 1059.08 195.41 1060.33 195.41 1061.99V1079.18C195.41 1080.84 195.85 1082.11 196.729 1082.99C197.607 1083.87 198.893 1084.3 200.586 1084.3H223.389C225.114 1084.3 226.4 1083.87 227.246 1082.99C228.092 1082.11 228.516 1080.84 228.516 1079.18V1062.09ZM375.244 1097H369.58C367.757 1097 365.804 1096.69 363.721 1096.07C361.67 1095.45 359.749 1094.44 357.959 1093.04C356.169 1091.61 354.688 1089.77 353.516 1087.53C352.344 1085.25 351.758 1082.47 351.758 1079.18V1021.9H364.453V1079.18C364.453 1080.74 364.941 1081.99 365.918 1082.94C366.895 1083.85 368.115 1084.3 369.58 1084.3H375.244V1097ZM540.332 1090.6C540.332 1091.51 540.169 1092.36 539.844 1093.14C539.518 1093.92 539.062 1094.61 538.477 1095.19C537.923 1095.75 537.256 1096.19 536.475 1096.51C535.726 1096.84 534.912 1097 534.033 1097H505.322C503.76 1097 502.083 1096.82 500.293 1096.46C498.535 1096.1 496.794 1095.54 495.068 1094.75C493.343 1093.94 491.667 1092.93 490.039 1091.73C488.444 1090.49 487.044 1089.01 485.84 1087.28C484.635 1085.53 483.659 1083.51 482.91 1081.23C482.194 1078.95 481.836 1076.38 481.836 1073.51V1044.22H494.531V1073.51C494.531 1075.17 494.808 1076.67 495.361 1078.01C495.947 1079.31 496.729 1080.43 497.705 1081.38C498.682 1082.32 499.821 1083.05 501.123 1083.57C502.458 1084.06 503.89 1084.3 505.42 1084.3H527.637V1044.22H540.332V1090.6ZM700.244 1056.91H678.076V1097H665.234V1056.91H648.73V1044.22H665.234V1026.98H678.076V1044.22H700.244V1056.91ZM821.484 1033.38H808.789V1021.9H821.484V1033.38ZM821.484 1097H808.789V1044.22H821.484V1097ZM991.113 1079.18C991.113 1081.36 990.837 1083.33 990.283 1085.09C989.73 1086.81 988.997 1088.34 988.086 1089.68C987.174 1090.98 986.117 1092.1 984.912 1093.04C983.708 1093.96 982.438 1094.71 981.104 1095.29C979.801 1095.88 978.467 1096.32 977.1 1096.61C975.765 1096.87 974.495 1097 973.291 1097H950.391C948.633 1097 946.712 1096.69 944.629 1096.07C942.546 1095.45 940.609 1094.44 938.818 1093.04C937.061 1091.61 935.579 1089.77 934.375 1087.53C933.203 1085.25 932.617 1082.47 932.617 1079.18V1061.99C932.617 1058.74 933.203 1055.98 934.375 1053.74C935.579 1051.46 937.061 1049.62 938.818 1048.22C940.609 1046.79 942.546 1045.76 944.629 1045.14C946.712 1044.53 948.633 1044.22 950.391 1044.22H973.291C976.546 1044.22 979.313 1044.8 981.592 1045.97C983.87 1047.15 985.71 1048.63 987.109 1050.42C988.509 1052.18 989.518 1054.1 990.137 1056.18C990.788 1058.26 991.113 1060.2 991.113 1061.99V1079.18ZM978.418 1062.09C978.418 1060.33 977.979 1059.03 977.1 1058.18C976.221 1057.34 974.951 1056.91 973.291 1056.91H950.488C948.796 1056.91 947.51 1057.35 946.631 1058.23C945.752 1059.08 945.312 1060.33 945.312 1061.99V1079.18C945.312 1080.84 945.752 1082.11 946.631 1082.99C947.51 1083.87 948.796 1084.3 950.488 1084.3H973.291C975.016 1084.3 976.302 1083.87 977.148 1082.99C977.995 1082.11 978.418 1080.84 978.418 1079.18V1062.09ZM1160.45 1097H1147.75V1067.7C1147.75 1066.04 1147.46 1064.56 1146.88 1063.26C1146.32 1061.93 1145.56 1060.79 1144.58 1059.84C1143.6 1058.9 1142.45 1058.18 1141.11 1057.69C1139.81 1057.17 1138.4 1056.91 1136.87 1056.91H1114.65V1097H1101.95V1050.52C1101.95 1049.64 1102.12 1048.82 1102.44 1048.07C1102.77 1047.29 1103.22 1046.63 1103.81 1046.07C1104.39 1045.49 1105.08 1045.03 1105.86 1044.71C1106.64 1044.38 1107.47 1044.22 1108.35 1044.22H1136.96C1138.56 1044.22 1140.23 1044.4 1141.99 1044.75C1143.78 1045.11 1145.54 1045.7 1147.27 1046.51C1149.02 1047.29 1150.68 1048.3 1152.25 1049.54C1153.84 1050.74 1155.24 1052.22 1156.45 1053.98C1157.68 1055.71 1158.66 1057.71 1159.38 1059.99C1160.09 1062.27 1160.45 1064.84 1160.45 1067.7V1097ZM1322.61 1079.18C1322.61 1081.36 1322.33 1083.33 1321.78 1085.09C1321.22 1086.81 1320.49 1088.34 1319.58 1089.68C1318.67 1090.98 1317.61 1092.1 1316.41 1093.04C1315.2 1093.96 1313.93 1094.71 1312.6 1095.29C1311.3 1095.88 1309.96 1096.32 1308.59 1096.61C1307.26 1096.87 1305.99 1097 1304.79 1097H1270.41V1084.3H1304.69C1306.41 1084.3 1307.71 1083.87 1308.59 1082.99C1309.47 1082.11 1309.91 1080.84 1309.91 1079.18C1309.75 1075.79 1308.04 1074.1 1304.79 1074.1H1285.11C1282.31 1074.1 1279.93 1073.61 1277.98 1072.63C1276.03 1071.66 1274.43 1070.44 1273.19 1068.97C1271.99 1067.51 1271.11 1065.93 1270.56 1064.24C1270.04 1062.54 1269.78 1060.96 1269.78 1059.5C1269.78 1056.67 1270.28 1054.29 1271.29 1052.37C1272.3 1050.42 1273.57 1048.84 1275.1 1047.63C1276.63 1046.43 1278.29 1045.57 1280.08 1045.05C1281.87 1044.49 1283.54 1044.22 1285.11 1044.22H1316.31V1056.91H1285.21C1284.55 1056.91 1284.03 1056.99 1283.64 1057.16C1283.28 1057.29 1283.01 1057.48 1282.81 1057.74C1282.65 1057.97 1282.55 1058.23 1282.52 1058.52C1282.49 1058.78 1282.47 1059.04 1282.47 1059.3C1282.5 1059.83 1282.6 1060.23 1282.76 1060.53C1282.93 1060.82 1283.12 1061.03 1283.35 1061.16C1283.61 1061.29 1283.89 1061.37 1284.18 1061.4C1284.51 1061.4 1284.81 1061.4 1285.11 1061.4H1304.79C1308.04 1061.4 1310.81 1061.99 1313.09 1063.16C1315.36 1064.33 1317.2 1065.82 1318.6 1067.61C1320 1069.36 1321.01 1071.28 1321.63 1073.37C1322.28 1075.45 1322.61 1077.39 1322.61 1079.18Z" fill="url(#paint9_linear_2_167)"/>
<defs>
<linearGradient id="paint0_linear_2_167" x1="630.513" y1="431.784" x2="589.148" y2="371.546" gradientUnits="userSpaceOnUse">
<stop stop-color="#4B4186"/>
<stop offset="0.99" stop-color="#EA1276"/>
</linearGradient>
<linearGradient id="paint1_linear_2_167" x1="678.364" y1="488.916" x2="678.364" y2="513.971" gradientUnits="userSpaceOnUse">
<stop stop-color="#5A9FD0"/>
<stop offset="1" stop-color="#06234F"/>
</linearGradient>
<linearGradient id="paint2_linear_2_167" x1="613.645" y1="443.375" x2="572.264" y2="383.136" gradientUnits="userSpaceOnUse">
<stop stop-color="#4B4186"/>
<stop offset="0.99" stop-color="#EA1276"/>
</linearGradient>
<linearGradient id="paint3_linear_2_167" x1="678.364" y1="525.102" x2="678.364" y2="550.157" gradientUnits="userSpaceOnUse">
<stop stop-color="#5A9FD0"/>
<stop offset="1" stop-color="#06234F"/>
</linearGradient>
<linearGradient id="paint4_linear_2_167" x1="596.761" y1="454.966" x2="555.396" y2="394.727" gradientUnits="userSpaceOnUse">
<stop stop-color="#4B4186"/>
<stop offset="0.99" stop-color="#EA1276"/>
</linearGradient>
<linearGradient id="paint5_linear_2_167" x1="678.34" y1="561.271" x2="678.34" y2="615.542" gradientUnits="userSpaceOnUse">
<stop stop-color="#5A9FD0"/>
<stop offset="1" stop-color="#06234F"/>
</linearGradient>
<linearGradient id="paint6_linear_2_167" x1="662.367" y1="0.627625" x2="662.367" y2="352.623" gradientUnits="userSpaceOnUse">
<stop stop-color="#5A9FD0"/>
<stop offset="1" stop-color="#06234F"/>
</linearGradient>
<linearGradient id="paint7_linear_2_167" x1="660.172" y1="253.058" x2="660.172" y2="476.108" gradientUnits="userSpaceOnUse">
<stop stop-color="#5A9FD0"/>
<stop offset="1" stop-color="#06234F"/>
</linearGradient>
<linearGradient id="paint8_linear_2_167" x1="663.5" y1="429" x2="663.5" y2="1066" gradientUnits="userSpaceOnUse">
<stop stop-color="#154B72"/>
<stop offset="1" stop-color="#09172D"/>
</linearGradient>
<linearGradient id="paint9_linear_2_167" x1="663" y1="998" x2="663" y2="1125" gradientUnits="userSpaceOnUse">
<stop stop-color="#154B72"/>
<stop offset="1" stop-color="#09172D"/>
</linearGradient>
</defs>
</svg>
