<svg width="387" height="616" viewBox="0 0 387 616" fill="none" xmlns="http://www.w3.org/2000/svg">
<path d="M129.372 513.971H289.356C296.278 513.971 301.884 508.365 301.884 501.444C301.884 494.522 296.278 488.916 289.356 488.916H129.372C122.45 488.916 116.844 494.522 116.844 501.444C116.844 508.365 122.45 513.971 129.372 513.971Z" fill="url(#paint0_linear_2_165)"/>
<path d="M129.372 513.971H289.356C296.278 513.971 301.884 508.365 301.884 501.444C301.884 494.522 296.278 488.916 289.356 488.916H129.372C122.45 488.916 116.844 494.522 116.844 501.444C116.844 508.365 122.45 513.971 129.372 513.971Z" fill="url(#paint1_linear_2_165)"/>
<path d="M289.356 525.102H129.372C122.45 525.102 116.844 530.708 116.844 537.629C116.844 544.551 122.45 550.157 129.372 550.157H289.356C296.278 550.157 301.884 544.551 301.884 537.629C301.884 530.708 296.278 525.102 289.356 525.102Z" fill="url(#paint2_linear_2_165)"/>
<path d="M289.356 525.102H129.372C122.45 525.102 116.844 530.708 116.844 537.629C116.844 544.551 122.45 550.157 129.372 550.157H289.356C296.278 550.157 301.884 544.551 301.884 537.629C301.884 530.708 296.278 525.102 289.356 525.102Z" fill="url(#paint3_linear_2_165)"/>
<path d="M258.744 561.271H159.968C153.047 561.271 147.44 566.878 147.44 573.799C147.44 580.721 153.047 586.327 159.968 586.327H169.027C174.584 603.294 190.531 615.542 209.34 615.542C228.148 615.542 244.095 603.294 249.652 586.327H258.711C265.632 586.327 271.239 580.721 271.239 573.799C271.239 566.878 265.632 561.271 258.711 561.271H258.744Z" fill="url(#paint4_linear_2_165)"/>
<path d="M258.744 561.271H159.968C153.047 561.271 147.44 566.878 147.44 573.799C147.44 580.721 153.047 586.327 159.968 586.327H169.027C174.584 603.294 190.531 615.542 209.34 615.542C228.148 615.542 244.095 603.294 249.652 586.327H258.711C265.632 586.327 271.239 580.721 271.239 573.799C271.239 566.878 265.632 561.271 258.711 561.271H258.744Z" fill="url(#paint5_linear_2_165)"/>
<path d="M368.649 184.27C378.645 184.27 386.734 176.181 386.734 166.185C386.734 156.189 379.007 148.495 369.323 148.133L350.367 104.582C354.757 100.521 357.519 94.7176 357.519 88.2729C357.519 75.9752 347.556 66.0122 335.258 66.0122C332.283 66.0122 329.438 66.6041 326.841 67.6727L243.667 25.0585C244.407 23.0856 244.835 20.9483 244.835 18.7124C244.835 8.71644 236.746 0.627625 226.75 0.627625C216.754 0.627625 208.665 8.71644 208.665 18.7124C208.665 20.0605 208.83 21.3593 209.109 22.6253L165.015 37.1259C159.918 29.3988 151.156 24.2858 141.209 24.2858C125.459 24.2858 112.684 37.0602 112.684 52.8103C112.684 61.491 116.581 69.2674 122.713 74.4956L105.072 99.058C96.4246 95.7041 87.037 93.8627 77.2054 93.8627C34.5747 93.8463 0 128.421 0 171.052C0 213.682 34.5747 248.257 77.2054 248.257C110.103 248.257 138.184 227.657 149.298 198.672L223.248 223.054L215.422 240.448C212.249 239.215 208.797 238.524 205.18 238.524C189.43 238.524 176.655 251.299 176.655 267.049C176.655 282.799 189.43 295.573 205.18 295.573C212.479 295.573 219.121 292.811 224.169 288.29L257.083 325.364C255.488 328.06 254.567 331.184 254.567 334.538C254.567 344.534 262.656 352.623 272.652 352.623C282.648 352.623 290.737 344.534 290.737 334.538C290.737 329.819 288.912 325.528 285.953 322.322L303.331 294.998C310.532 298.927 318.801 301.163 327.597 301.163C355.645 301.163 378.366 278.426 378.366 250.394C378.366 231.175 367.696 214.472 351.962 205.84L363.388 183.53C365.049 184.04 366.808 184.303 368.633 184.303L368.649 184.27ZM239.557 31.5032L319.574 72.5063C315.776 76.2712 313.376 81.4007 313.063 87.1056L290.244 90.0814C287.087 69.3825 269.2 53.5173 247.613 53.5173C246.462 53.5173 245.344 53.583 244.21 53.6652L235.809 34.3639C237.173 33.5747 238.423 32.6212 239.524 31.5197L239.557 31.5032ZM153.819 161.582L215.85 125.774C222.262 132.761 230.926 137.611 240.708 139.19L238.817 176.017C232.849 176.625 227.753 180.143 224.925 185.125L154.214 176.411C154.329 174.636 154.427 172.844 154.427 171.052C154.427 167.846 154.214 164.689 153.835 161.582H153.819ZM236.729 211.644C237.995 211.923 239.311 212.088 240.659 212.088C245.673 212.088 250.194 210.049 253.482 206.761L283.98 224.369C282.237 227.279 280.79 230.386 279.656 233.641L233.655 218.467L236.729 211.627V211.644ZM168.336 44.0475L212.315 29.5961C215.62 33.9693 220.848 36.83 226.75 36.83C227.358 36.83 227.966 36.7971 228.558 36.7314L236.499 54.9641C224.169 58.2522 214.008 66.8507 208.632 78.1783L168.106 62.1486C169.125 59.2222 169.701 56.082 169.701 52.8103C169.701 49.7524 169.207 46.8095 168.32 44.0475H168.336ZM126.692 111.799C122.253 108.084 117.37 104.878 112.158 102.215L129.109 78.6058C132.791 80.332 136.869 81.3185 141.209 81.3185C150.958 81.3185 159.557 76.4191 164.703 68.9551L206.018 85.2971C205.032 88.9141 204.506 92.6954 204.506 96.6247C204.506 101.968 205.476 107.065 207.251 111.799H126.692ZM134.583 119.395H211C211.065 119.494 211.131 119.592 211.181 119.691L152.405 153.625C149.413 140.669 143.182 128.947 134.567 119.412L134.583 119.395ZM151.682 191.455C152.356 189.005 152.898 186.506 153.326 183.974L222.656 192.507C222.623 193 222.574 193.493 222.574 194.003C222.574 199.922 225.435 205.166 229.824 208.454L226.388 216.083L151.665 191.438L151.682 191.455ZM222.114 244.131L230.515 225.454L277.7 241.007C277.141 244.032 276.828 247.156 276.828 250.345C276.828 252.252 276.943 254.143 277.141 255.984L230.317 253.584C228.312 249.835 225.484 246.613 222.097 244.114L222.114 244.131ZM279.755 317.883C277.568 316.946 275.184 316.437 272.652 316.437C268.789 316.437 265.205 317.67 262.262 319.741L229.167 282.454C232.027 278.015 233.704 272.737 233.704 267.049C233.704 265.109 233.507 263.202 233.129 261.36L278.604 263.695C281.58 274.661 288.139 284.164 296.952 290.838L279.738 317.883H279.755ZM288.37 218.138L257.576 200.365C258.316 198.393 258.743 196.255 258.743 194.019C258.743 186.029 253.565 179.256 246.364 176.872L248.271 139.749C256.244 139.634 263.692 137.348 270.071 133.468L319.294 200.283C306.898 202.322 296.014 208.849 288.37 218.154V218.138ZM345.057 202.667C339.812 200.744 334.14 199.675 328.238 199.609L276.187 128.947C277.305 127.944 278.39 126.908 279.409 125.791L350.663 164.393C350.597 164.985 350.565 165.593 350.565 166.202C350.565 171.627 352.965 176.494 356.763 179.815L345.057 202.667ZM353.064 157.061L284.078 119.675C288.123 113.279 290.523 105.766 290.721 97.6934L313.935 94.6683C316.68 103.859 325.18 110.566 335.258 110.566C338.333 110.566 341.243 109.942 343.906 108.824L361.629 149.547C358.029 151.06 355.02 153.74 353.064 157.077V157.061Z" fill="url(#paint6_linear_2_165)"/>
<path d="M315.546 314.891C295.949 356.009 285.723 401.04 285.723 447.321C285.723 452.796 281.267 457.251 275.792 457.251H142.245C136.77 457.251 132.315 452.796 132.315 447.321C132.315 386.063 113.638 325.775 78.2905 272.951C76.2683 269.926 74.3612 266.851 72.5692 263.711C62.1786 260.933 53.4158 256.987 46.3792 253.058C50.7688 263.629 56.1778 273.822 62.6061 283.44C95.8656 333.14 113.441 389.811 113.441 447.321C113.441 463.186 126.347 476.108 142.228 476.108H275.759C291.641 476.108 304.547 463.203 304.547 447.321C304.547 401.27 315.332 356.519 335.965 316.058C328.6 316.617 321.695 316.058 315.513 314.891H315.546Z" fill="url(#paint7_linear_2_165)"/>
<defs>
<linearGradient id="paint0_linear_2_165" x1="161.513" y1="431.784" x2="120.148" y2="371.546" gradientUnits="userSpaceOnUse">
<stop stop-color="#4B4186"/>
<stop offset="0.99" stop-color="#EA1276"/>
</linearGradient>
<linearGradient id="paint1_linear_2_165" x1="209.364" y1="488.916" x2="209.364" y2="513.971" gradientUnits="userSpaceOnUse">
<stop stop-color="#5A9FD0"/>
<stop offset="1" stop-color="#06234F"/>
</linearGradient>
<linearGradient id="paint2_linear_2_165" x1="144.645" y1="443.375" x2="103.264" y2="383.136" gradientUnits="userSpaceOnUse">
<stop stop-color="#4B4186"/>
<stop offset="0.99" stop-color="#EA1276"/>
</linearGradient>
<linearGradient id="paint3_linear_2_165" x1="209.364" y1="525.102" x2="209.364" y2="550.157" gradientUnits="userSpaceOnUse">
<stop stop-color="#5A9FD0"/>
<stop offset="1" stop-color="#06234F"/>
</linearGradient>
<linearGradient id="paint4_linear_2_165" x1="127.761" y1="454.966" x2="86.3962" y2="394.727" gradientUnits="userSpaceOnUse">
<stop stop-color="#4B4186"/>
<stop offset="0.99" stop-color="#EA1276"/>
</linearGradient>
<linearGradient id="paint5_linear_2_165" x1="209.34" y1="561.271" x2="209.34" y2="615.542" gradientUnits="userSpaceOnUse">
<stop stop-color="#5A9FD0"/>
<stop offset="1" stop-color="#06234F"/>
</linearGradient>
<linearGradient id="paint6_linear_2_165" x1="193.367" y1="0.627625" x2="193.367" y2="352.623" gradientUnits="userSpaceOnUse">
<stop stop-color="#5A9FD0"/>
<stop offset="1" stop-color="#06234F"/>
</linearGradient>
<linearGradient id="paint7_linear_2_165" x1="191.172" y1="253.058" x2="191.172" y2="476.108" gradientUnits="userSpaceOnUse">
<stop stop-color="#5A9FD0"/>
<stop offset="1" stop-color="#06234F"/>
</linearGradient>
</defs>
</svg>
